<?xml version="1.0" encoding="UTF-8"?>
<!DOCTYPE svg PUBLIC "-//W3C//DTD SVG 1.1//EN" "http://www.w3.org/Graphics/SVG/1.1/DTD/svg11.dtd">
<svg xmlns="http://www.w3.org/2000/svg" xmlns:xlink="http://www.w3.org/1999/xlink" version="1.1" width="172px" height="309px" viewBox="-0.5 -0.5 172 309"><defs><clipPath id="mx-clip-4-111-162-26-0"><rect x="4" y="111" width="162" height="26"/></clipPath><clipPath id="mx-clip-4-137-162-26-0"><rect x="4" y="137" width="162" height="26"/></clipPath><clipPath id="mx-clip-4-163-162-26-0"><rect x="4" y="163" width="162" height="26"/></clipPath><clipPath id="mx-clip-4-231-162-26-0"><rect x="4" y="231" width="162" height="26"/></clipPath><clipPath id="mx-clip-4-257-162-26-0"><rect x="4" y="257" width="162" height="26"/></clipPath><clipPath id="mx-clip-4-283-162-26-0"><rect x="4" y="283" width="162" height="26"/></clipPath></defs><g><g data-cell-id="uOr_8aed8xdd3O8DFecX-0"><g data-cell-id="uOr_8aed8xdd3O8DFecX-1"><g data-cell-id="uOr_8aed8xdd3O8DFecX-2"><g><ellipse cx="85" cy="40" rx="40" ry="40" fill="rgb(255, 255, 255)" stroke="rgb(0, 0, 0)" pointer-events="all"/></g></g><g data-cell-id="uOr_8aed8xdd3O8DFecX-3"><g><path d="M 0 106 L 0 80 L 170 80 L 170 106" fill="rgb(255, 255, 255)" stroke="rgb(0, 0, 0)" stroke-miterlimit="10" pointer-events="all"/><path d="M 0 106 L 0 184 L 170 184 L 170 106" fill="none" stroke="rgb(0, 0, 0)" stroke-miterlimit="10" pointer-events="none"/><path d="M 0 106 L 170 106" fill="none" stroke="rgb(0, 0, 0)" stroke-miterlimit="10" pointer-events="none"/></g><g><g fill="rgb(0, 0, 0)" font-family="&quot;Helvetica&quot;" text-anchor="middle" font-size="12px"><text x="84.5" y="97.5">BD - Ativo</text></g></g><g data-cell-id="uOr_8aed8xdd3O8DFecX-4"><g><rect x="0" y="106" width="170" height="26" fill="none" stroke="none" pointer-events="all"/></g><g><g fill="rgb(0, 0, 0)" font-family="&quot;Helvetica&quot;" clip-path="url(#mx-clip-4-111-162-26-0)" font-size="12px"><text x="5.5" y="123.5">ABC123_CPU%=90 @ ts3</text></g></g></g><g data-cell-id="uOr_8aed8xdd3O8DFecX-5"><g><rect x="0" y="132" width="170" height="26" fill="none" stroke="none" pointer-events="all"/></g><g><g fill="rgb(0, 0, 0)" font-family="&quot;Helvetica&quot;" clip-path="url(#mx-clip-4-137-162-26-0)" font-size="12px"><text x="5.5" y="149.5">DEF123_CPU%=37 @ts1</text></g></g></g><g data-cell-id="uOr_8aed8xdd3O8DFecX-6"><g><rect x="0" y="158" width="170" height="26" fill="none" stroke="none" pointer-events="all"/></g><g><g fill="rgb(0, 0, 0)" font-family="&quot;Helvetica&quot;" clip-path="url(#mx-clip-4-163-162-26-0)" font-size="12px"><text x="5.5" y="175.5">ABC456_CPU%=66 @ts2</text></g></g></g></g><g data-cell-id="uOr_8aed8xdd3O8DFecX-7"><g><path d="M 0 226 L 0 200 L 170 200 L 170 226" fill="rgb(255, 255, 255)" stroke="rgb(0, 0, 0)" stroke-miterlimit="10" pointer-events="all"/><path d="M 0 226 L 0 304 L 170 304 L 170 226" fill="none" stroke="rgb(0, 0, 0)" stroke-miterlimit="10" pointer-events="none"/><path d="M 0 226 L 170 226" fill="none" stroke="rgb(0, 0, 0)" stroke-miterlimit="10" pointer-events="none"/></g><g><g fill="rgb(0, 0, 0)" font-family="&quot;Helvetica&quot;" text-anchor="middle" font-size="12px"><text x="84.5" y="217.5">BD - Inativo</text></g></g><g data-cell-id="uOr_8aed8xdd3O8DFecX-8"><g><rect x="0" y="226" width="170" height="26" fill="none" stroke="none" pointer-events="all"/></g><g><g fill="rgb(0, 0, 0)" font-family="&quot;Helvetica&quot;" clip-path="url(#mx-clip-4-231-162-26-0)" font-size="12px"><text x="5.5" y="243.5">ABC123_CPU @ ts3</text></g></g></g><g data-cell-id="uOr_8aed8xdd3O8DFecX-9"><g><rect x="0" y="252" width="170" height="26" fill="none" stroke="none" pointer-events="all"/></g><g><g fill="rgb(0, 0, 0)" font-family="&quot;Helvetica&quot;" clip-path="url(#mx-clip-4-257-162-26-0)" font-size="12px"><text x="5.5" y="269.5">DEF123_CPU @ts1</text></g></g></g><g data-cell-id="uOr_8aed8xdd3O8DFecX-10"><g><rect x="0" y="278" width="170" height="26" fill="none" stroke="none" pointer-events="all"/></g><g><g fill="rgb(0, 0, 0)" font-family="&quot;Helvetica&quot;" clip-path="url(#mx-clip-4-283-162-26-0)" font-size="12px"><text x="5.5" y="295.5">ABC456_CPU @ts2</text></g></g></g></g></g></g></g></svg>